HIERARCHY
ROOT Hips
{
 OFFSET 0.000000 0.000000 0.000000
 CHANNELS 6 Xposition Yposition Zposition Yrotation Xrotation Zrotation
 JOINT Chest
 {
  OFFSET 0.000000 11.395451 -0.039534
  CHANNELS 3 Yrotation Xrotation Zrotation
  JOINT Chest2
  {
   OFFSET 0.000000 9.398669 0.071813
   CHANNELS 3 Yrotation Xrotation Zrotation
   JOINT Chest3
   {
    OFFSET 0.000000 8.489801 0.000000
    CHANNELS 3 Yrotation Xrotation Zrotation
    JOINT Chest4
    {
     OFFSET 0.000000 8.489801 0.000000
     CHANNELS 3 Yrotation Xrotation Zrotation
     JOINT Neck
     {
      OFFSET 0.000000 12.404889 0.000000
      CHANNELS 3 Yrotation Xrotation Zrotation
      JOINT Head
      {
       OFFSET 0.000000 8.903270 0.092239
       CHANNELS 3 Yrotation Xrotation Zrotation
       End Site
       {
        OFFSET 0.000000 17.592497 0.007158
       }
      }
     }
     JOINT RightCollar
     {
      OFFSET -3.196775 6.966722 0.000000
      CHANNELS 3 Yrotation Xrotation Zrotation
      JOINT RightShoulder
      {
       OFFSET -15.955896 0.000000 0.000000
       CHANNELS 3 Yrotation Xrotation Zrotation
       JOINT RightElbow
       {
        OFFSET -24.792472 0.000000 0.000000
        CHANNELS 3 Yrotation Xrotation Zrotation
        JOINT RightWrist
        {
         OFFSET -20.900115 0.000000 0.025002
         CHANNELS 3 Yrotation Xrotation Zrotation
         End Site
         {
          OFFSET -16.056692 0.000000 0.000000
         }
        }
       }
      }
     }
     JOINT LeftCollar
     {
      OFFSET 3.196775 6.966722 0.000000
      CHANNELS 3 Yrotation Xrotation Zrotation
      JOINT LeftShoulder
      {
       OFFSET 15.955896 0.000000 0.000000
       CHANNELS 3 Yrotation Xrotation Zrotation
       JOINT LeftElbow
       {
        OFFSET 24.792472 0.000000 0.000000
        CHANNELS 3 Yrotation Xrotation Zrotation
        JOINT LeftWrist
        {
         OFFSET 20.900115 0.000000 0.025002
         CHANNELS 3 Yrotation Xrotation Zrotation
         End Site
         {
          OFFSET 16.056692 0.000000 0.000000
         }
        }
       }
      }
     }
    }
   }
  }
 }
 JOINT RightHip
 {
  OFFSET -9.568995 0.193718 0.019767
  CHANNELS 3 Yrotation Xrotation Zrotation
  JOINT RightKnee
  {
   OFFSET 0.000000 -56.649296 0.015402
   CHANNELS 3 Yrotation Xrotation Zrotation
   JOINT RightAnkle
   {
    OFFSET 0.000000 -41.365147 0.021264
    CHANNELS 3 Yrotation Xrotation Zrotation
    JOINT RightToe
    {
     OFFSET 0.000000 -7.465940 17.672538
     CHANNELS 3 Yrotation Xrotation Zrotation
     End Site
     {
      OFFSET 0.000000 -1.736315 7.837145
     }
    }
   }
  }
 }
 JOINT LeftHip
 {
  OFFSET 9.568995 0.193718 0.019767
  CHANNELS 3 Yrotation Xrotation Zrotation
  JOINT LeftKnee
  {
   OFFSET 0.000000 -56.649296 0.015402
   CHANNELS 3 Yrotation Xrotation Zrotation
   JOINT LeftAnkle
   {
    OFFSET 0.000000 -41.365147 0.021264
    CHANNELS 3 Yrotation Xrotation Zrotation
    JOINT LeftToe
    {
     OFFSET 0.000000 -7.465940 17.672538
     CHANNELS 3 Yrotation Xrotation Zrotation
     End Site
     {
      OFFSET 0.000000 -1.736315 7.837145
     }
    }
   }
  }
 }
}
MOTION
Frames: 10
Frame Time: 0.016667
300.156326 106.359825 398.091539 143.366911 -8.797008 -1.152356 -0.945138 6.280406 1.115036 -0.434522 2.789017 0.507613 -0.434522 2.789017 0.507613 -0.328146 2.091405 0.382619 -0.089407 13.589672 -0.800497 0.152654 -10.944824 -1.477805 0.847932 5.481192 6.461461 12.598382 -13.311708 76.620409 1.719869 -7.229778 -0.497326 -2.843670 -2.902067 1.590543 -2.437218 6.539589 -7.756999 -5.647809 -15.052429 -77.787281 -2.306327 2.133908 -2.953342 5.224374 -2.807194 -1.899009 2.587266 14.491176 2.802577 1.125689 -0.896688 -0.559999 6.680056 -5.963471 -0.836606 0.000000 0.000000 0.000000 1.910295 13.318089 1.022367 -0.987956 6.466201 -0.123179 8.954568 -11.199908 -0.084628 0.000000 0.000000 0.000000
300.085325 106.353895 398.087849 143.364628 -8.695844 -1.178135 -0.949358 6.210983 1.078462 -0.435752 2.758228 0.491312 -0.435752 2.758229 0.491310 -0.328970 2.068325 0.370379 -0.075793 13.621921 -0.769524 0.165578 -10.885057 -1.424423 0.814364 5.490980 6.520659 12.617767 -13.238252 76.773749 1.710950 -7.186844 -0.529520 -2.794388 -2.889310 1.520251 -2.379446 6.553636 -7.673710 -5.678739 -14.960764 -77.820464 -2.312385 2.135749 -2.919909 5.179515 -2.804112 -1.880155 2.486773 14.382897 2.745784 1.273172 -0.929597 -0.554986 6.629297 -5.932437 -0.763758 0.000000 0.000000 0.000000 1.918057 13.174852 0.989420 -1.017702 6.507602 -0.138738 8.952800 -11.257182 -0.034846 -0.000000 0.000000 0.000000
300.014324 106.347965 398.084160 143.362300 -8.594681 -1.203910 -0.953630 6.141557 1.041898 -0.437015 2.727437 0.475016 -0.437016 2.727437 0.475015 -0.329822 2.045242 0.358145 -0.062129 13.654162 -0.738544 0.178615 -10.825300 -1.371062 0.780764 5.500896 6.579812 12.637319 -13.164743 76.927030 1.701954 -7.143958 -0.561751 -2.745164 -2.876522 1.449938 -2.321708 6.567543 -7.590360 -5.709650 -14.869093 -77.853690 -2.318431 2.137577 -2.886472 5.134664 -2.801008 -1.861290 2.386339 14.274554 2.689374 1.420621 -0.962646 -0.549973 6.578561 -5.901358 -0.690945 0.000000 0.000000 -0.000000 1.925779 13.031614 0.956444 -1.047412 6.549022 -0.154337 8.950916 -11.314435 0.014980 0.000000 0.000000 -0.000000
299.943929 106.342964 398.078574 143.358042 -8.506274 -1.228663 -0.956465 6.080714 1.007199 -0.437693 2.700460 0.459543 -0.437693 2.700460 0.459543 -0.330241 2.025019 0.346529 -0.049161 13.681470 -0.710921 0.191756 -10.774682 -1.323820 0.748210 5.509144 6.633918 12.667240 -13.102495 77.064781 1.693382 -7.094429 -0.595867 -2.702226 -2.855531 1.388029 -2.268464 6.579534 -7.512603 -5.738034 -14.781756 -77.886090 -2.327796 2.143788 -2.857956 5.092232 -2.796994 -1.844215 2.308537 14.175807 2.640837 1.543079 -0.986524 -0.542474 6.532752 -5.875528 -0.627127 0.000000 0.000000 0.000000 1.931345 12.904649 0.928228 -1.069193 6.588900 -0.164833 8.951347 -11.367081 0.056737 0.000000 0.000000 0.000000
299.873831 106.339475 398.069929 143.348032 -8.436469 -1.251454 -0.956467 6.032840 0.975271 -0.437184 2.679248 0.445285 -0.437184 2.679248 0.445285 -0.329782 2.009120 0.335821 -0.036994 13.700792 -0.688134 0.205418 -10.738863 -1.285469 0.716371 5.514753 6.679702 12.716783 -13.059162 77.179918 1.681413 -7.031698 -0.635906 -2.670970 -2.815909 1.342059 -2.221108 6.587266 -7.443184 -5.761109 -14.699980 -77.917686 -2.343027 2.157584 -2.836798 5.054056 -2.790263 -1.829936 2.267111 14.089959 2.603381 1.626976 -0.994895 -0.530159 6.495434 -5.857799 -0.577085 0.000000 0.000000 -0.000000 1.935667 12.801962 0.907727 -1.078236 6.626568 -0.166939 8.956772 -11.412929 0.084059 -0.000000 -0.000000 0.000000
299.804340 106.336916 398.059387 143.336117 -8.379422 -1.273234 -0.955004 5.993543 0.945201 -0.436071 2.661849 0.431847 -0.436071 2.661848 0.431847 -0.328877 1.996081 0.325728 -0.025554 13.715180 -0.668706 0.219109 -10.712186 -1.253216 0.685593 5.518651 6.720463 12.776566 -13.027225 77.279610 1.669816 -6.962303 -0.677800 -2.646037 -2.768112 1.304483 -2.178233 6.593141 -7.379395 -5.781665 -14.622538 -77.948431 -2.361562 2.175785 -2.820553 5.018305 -2.782619 -1.817442 2.248254 14.013759 2.573476 1.685912 -0.994006 -0.515338 6.463025 -5.845346 -0.536011 0.000000 0.000000 -0.000000 1.937851 12.715545 0.892025 -1.079365 6.662675 -0.163909 8.964598 -11.454192 0.103275 0.000000 0.000000 0.000000
299.736994 106.334463 398.048543 143.331914 -8.330352 -1.295807 -0.954720 5.958250 0.916104 -0.435506 2.646223 0.418863 -0.435506 2.646223 0.418863 -0.328386 1.984371 0.315979 -0.015319 13.728866 -0.651566 0.231451 -10.686806 -1.224813 0.657967 5.521867 6.761069 12.828825 -12.995250 77.369781 1.670528 -6.899166 -0.711238 -2.617548 -2.735277 1.261106 -2.140074 6.602513 -7.318711 -5.805550 -14.550084 -77.977358 -2.379061 2.193218 -2.806809 4.981896 -2.778582 -1.805509 2.233195 13.947056 2.548423 1.735679 -0.993406 -0.502484 6.429710 -5.834958 -0.498479 0.000000 0.000000 0.000000 1.933086 12.637655 0.877118 -1.079139 6.697630 -0.160396 8.969358 -11.492884 0.125322 0.000000 0.000000 0.000000
299.672427 106.331673 398.037997 143.342876 -8.289053 -1.320846 -0.958554 5.926802 0.888216 -0.436794 2.632296 0.406476 -0.436794 2.632296 0.406476 -0.329290 1.973934 0.306686 -0.006538 13.742253 -0.637274 0.242192 -10.661973 -1.201215 0.635639 5.525176 6.803062 12.867675 -12.959756 77.449737 1.692448 -6.844424 -0.730942 -2.579871 -2.729249 1.203446 -2.107522 6.617022 -7.260509 -5.836391 -14.482643 -78.003914 -2.395771 2.207506 -2.796369 4.941231 -2.782741 -1.793076 2.218384 13.891281 2.530144 1.778283 -0.995742 -0.493993 6.390509 -5.827006 -0.464723 0.000000 0.000000 0.000000 1.915765 12.566072 0.862084 -1.079237 6.733229 -0.157643 8.968228 -11.530244 0.155456 0.000000 0.000000 0.000000
299.610007 106.328989 398.027147 143.361553 -8.255719 -1.346657 -0.963555 5.899370 0.861294 -0.438624 2.620151 0.394539 -0.438624 2.620151 0.394539 -0.330604 1.964832 0.297734 0.001038 13.754939 -0.625270 0.251580 -10.638436 -1.181462 0.616461 5.527765 6.844909 12.899012 -12.924185 77.520157 1.726767 -6.795891 -0.742172 -2.538607 -2.738110 1.139960 -2.079651 6.635055 -7.205415 -5.870553 -14.420183 -78.028662 -2.411452 2.221027 -2.788431 4.899893 -2.790494 -1.781193 2.207361 13.845019 2.516655 1.811720 -0.998339 -0.487484 6.350397 -5.821116 -0.434507 -0.000000 0.000000 -0.000000 1.891505 12.503027 0.847855 -1.077981 6.767675 -0.154401 8.964030 -11.565024 0.188427 0.000000 0.000000 0.000000
299.549371 106.326916 398.015783 143.375203 -8.226170 -1.369989 -0.963545 5.871871 0.833738 -0.438225 2.607986 0.382255 -0.438225 2.607986 0.382255 -0.330244 1.955718 0.288513 0.007691 13.769955 -0.612798 0.259015 -10.610586 -1.160439 0.596069 5.528291 6.886857 12.922777 -12.887430 77.589013 1.758902 -6.760000 -0.750436 -2.500728 -2.749367 1.081885 -2.053964 6.657064 -7.152766 -5.902981 -14.363279 -78.052312 -2.421036 2.235714 -2.778185 4.865575 -2.792595 -1.771825 2.192015 13.803842 2.499495 1.845755 -1.002796 -0.480259 6.318497 -5.812951 -0.401703 0.000000 -0.000000 0.000000 1.872322 12.447454 0.833197 -1.076889 6.795985 -0.151598 8.959742 -11.595506 0.219416 0.000000 0.000000 0.000000
